<?xml version="1.0" standalone="no"?>
<!DOCTYPE svg PUBLIC "-//W3C//DTD SVG 20010904//EN"
 "http://www.w3.org/TR/2001/REC-SVG-20010904/DTD/svg10.dtd">
<svg version="1.0" xmlns="http://www.w3.org/2000/svg"
 width="300.000000pt" height="300.000000pt" viewBox="0 0 300.000000 300.000000"
 preserveAspectRatio="xMidYMid meet">
<metadata>
Created by potrace 1.10, written by Peter Selinger 2001-2011
</metadata>
<g transform="translate(0.000000,300.000000) scale(0.100000,-0.100000)"
fill="#000000" stroke="none">
<path d="M1419 2739 l-24 -61 -72 4 c-40 2 -73 1 -73 -2 0 -3 18 -15 40 -28
22 -13 38 -27 35 -32 -4 -6 3 -10 15 -10 23 0 22 -17 -7 -73 -19 -37 -12 -42
29 -22 l33 17 -30 -25 c-37 -31 -26 -49 13 -20 15 11 41 27 58 36 30 15 32 15
68 -10 48 -32 61 -21 41 36 -17 48 -20 74 -6 52 7 -12 17 -11 60 4 27 10 53
25 56 32 5 14 -7 13 -54 -5 -9 -3 -12 -1 -7 6 10 17 1 15 -44 -8 -45 -23 -46
-26 -25 -75 l14 -35 -45 26 -46 27 -53 -26 -53 -26 20 45 c11 25 18 47 16 48
-1 1 -21 13 -43 27 l-40 24 57 3 56 3 18 50 18 49 19 -47 c10 -26 21 -50 23
-53 7 -7 127 -17 142 -12 18 6 15 22 -5 20 -10 -1 -42 0 -71 0 -44 2 -54 5
-61 25 -5 12 -15 36 -22 52 -7 17 -12 33 -11 38 1 4 -2 7 -6 7 -5 0 -20 -27
-33 -61z"/>
<path d="M750 2704 c1 -80 61 -172 154 -235 32 -21 52 -39 44 -39 -31 0 -136
62 -196 116 -35 31 -64 55 -66 53 -10 -11 29 -119 53 -149 24 -30 50 -51 147
-118 17 -11 17 -12 -6 -6 -35 9 -147 82 -170 112 -18 23 -20 23 -20 5 0 -26
27 -102 42 -120 6 -8 12 -27 13 -43 5 -61 109 -160 169 -160 27 -1 29 -2 13
-11 -13 -8 -32 -8 -64 0 -25 7 -48 10 -51 7 -11 -11 51 -77 85 -91 39 -16 153
-23 191 -11 12 4 22 3 22 -1 0 -15 78 -7 104 10 23 15 24 15 24 -9 0 -13 5
-31 12 -39 14 -17 46 -20 55 -5 3 6 23 10 44 10 20 0 42 5 49 12 19 19 14 49
-8 55 -26 7 -15 23 15 23 14 0 29 9 35 20 15 28 39 25 50 -6 6 -14 15 -22 20
-19 6 3 20 3 31 0 l21 -7 -22 -15 c-43 -30 3 -86 51 -62 11 6 22 2 34 -11 26
-29 80 -27 100 4 9 13 13 31 9 42 -7 17 -5 17 17 -3 13 -12 35 -23 48 -25 14
-1 27 -9 29 -17 3 -9 0 -12 -10 -8 -16 6 -60 -34 -71 -64 -4 -14 -18 -10 -88
25 -71 35 -93 41 -160 45 -64 2 -92 -2 -156 -23 -43 -15 -84 -30 -92 -35 -11
-7 -26 3 -57 35 -24 24 -52 44 -64 44 -11 0 -23 0 -27 1 -4 0 -9 -5 -11 -11
-2 -6 2 -11 9 -9 40 5 68 -14 118 -79 13 -17 31 -34 41 -37 22 -7 21 -62 -3
-99 -25 -38 -105 -86 -143 -86 -34 0 -84 33 -84 55 0 22 22 29 32 11 8 -14 13
-15 26 -5 14 11 15 11 5 -1 -17 -18 -16 -30 0 -30 8 0 19 12 26 26 9 21 9 32
-4 57 -18 36 -19 47 -4 47 5 0 7 -4 4 -10 -10 -16 32 -11 49 6 9 8 16 23 16
31 0 13 -6 11 -27 -8 -20 -17 -23 -18 -10 -3 19 23 22 61 7 84 -8 12 -10 11
-10 -7 0 -28 -25 -41 -73 -40 -41 1 -41 1 -27 27 21 38 -60 86 -101 59 -12 -8
-11 -11 4 -20 25 -15 22 -29 -23 -87 -44 -60 -57 -107 -41 -152 9 -28 8 -32
-14 -42 -22 -10 -24 -16 -19 -48 4 -26 2 -40 -9 -49 -9 -7 -13 -19 -10 -27 6
-16 -5 -18 -25 -6 -13 9 -6 42 8 42 8 0 1 33 -15 72 -4 9 -18 24 -31 33 -24
15 -24 15 -18 -8 6 -27 -19 -87 -37 -87 -6 0 -19 5 -31 11 -11 6 -32 8 -46 4
-27 -7 -27 -7 -4 -16 19 -7 22 -16 22 -61 l0 -53 -36 38 c-19 20 -41 37 -49
37 -7 0 -22 3 -32 7 -16 6 -16 5 -5 -10 17 -20 6 -57 -17 -57 -9 0 -22 -5 -29
-12 -15 -15 -16 -64 -2 -73 6 -3 10 -10 10 -16 0 -16 -26 -10 -54 12 -54 42
-19 125 49 117 19 -2 31 0 29 4 -12 18 -75 8 -99 -17 -37 -36 -33 -80 11 -121
19 -19 39 -34 43 -34 4 0 18 12 32 27 13 14 19 23 12 19 -6 -3 -14 -2 -18 4
-8 13 35 13 55 0 13 -9 12 -12 -4 -25 -11 -8 -26 -15 -35 -15 -10 0 -8 -7 9
-25 13 -14 30 -25 37 -25 10 0 11 -5 3 -19 -19 -37 -13 -54 18 -47 22 5 24 4
9 -4 -24 -15 -21 -32 4 -28 12 2 29 14 38 28 15 23 15 24 -4 17 -18 -6 -18 -5
3 12 12 11 22 25 22 32 0 6 -11 0 -25 -15 -35 -38 -55 -35 -48 8 4 28 2 34
-18 39 -23 6 -23 6 -4 27 25 28 10 54 -34 58 -40 4 -41 27 -1 50 16 9 32 28
35 41 l6 24 27 -25 c42 -39 93 -71 100 -64 3 4 0 11 -8 16 -11 7 -15 27 -15
70 0 33 3 60 8 60 4 0 7 -5 7 -11 0 -24 46 -2 69 34 17 26 27 34 33 25 11 -18
10 -76 -2 -83 -17 -11 -11 -23 13 -27 16 -2 23 -11 25 -31 3 -25 1 -27 -21
-21 -29 7 -67 -24 -67 -54 0 -37 33 -53 103 -50 51 2 70 7 92 26 32 27 27 40
-7 18 -30 -19 -115 -38 -139 -31 -23 8 -41 38 -34 58 4 9 21 13 52 13 31 -1
48 4 51 13 2 8 1 11 -4 8 -5 -3 -9 8 -10 24 -1 18 4 29 12 29 8 0 14 -4 14 -9
0 -5 14 -11 31 -13 25 -4 32 -1 40 19 12 31 11 43 -1 43 -5 0 -10 -7 -10 -15
0 -21 -44 -29 -72 -14 -20 11 -20 14 -6 17 20 4 30 34 26 72 -3 21 1 25 23 23
21 -1 28 5 38 33 15 42 55 74 90 73 17 -1 20 -3 9 -6 -19 -5 -22 -20 -12 -48
16 -40 138 -71 203 -50 20 6 28 -7 22 -39 -1 -5 5 -6 14 -2 10 3 15 1 13 -7
-6 -32 16 -58 72 -85 46 -22 57 -31 48 -40 -7 -7 -20 -12 -29 -12 -10 0 -24
-8 -31 -18 -7 -11 -20 -21 -28 -25 -9 -3 -5 -5 10 -5 14 0 50 -11 80 -23 45
-20 54 -28 52 -46 -3 -21 30 -53 55 -53 18 0 53 37 53 55 0 24 -17 17 -24 -9
-12 -47 -66 -39 -66 9 0 26 21 38 54 29 12 -3 47 4 76 15 51 19 100 19 100 0
0 -5 -4 -9 -9 -9 -5 0 -28 -25 -51 -55 -24 -31 -56 -65 -71 -76 -26 -18 -35
-19 -86 -9 -63 11 -108 46 -146 113 -11 20 -27 37 -34 37 -7 0 -13 5 -13 10 0
6 -13 10 -29 10 -31 0 -61 -30 -61 -61 0 -13 -15 -17 -71 -23 -130 -12 -236
-89 -278 -200 -16 -44 -20 -48 -28 -31 -4 11 -8 47 -7 80 1 46 7 71 28 107 15
26 32 50 37 53 15 10 10 25 -6 19 -8 -4 -15 -12 -15 -18 0 -7 -15 -27 -34 -45
-19 -18 -37 -44 -40 -57 -4 -16 -23 -31 -59 -48 -31 -15 -59 -37 -70 -56 -21
-35 -37 -38 -44 -10 -3 11 -9 17 -14 14 -14 -8 -10 -47 7 -72 14 -20 14 -24 0
-44 -9 -12 -16 -39 -16 -60 0 -20 -7 -43 -15 -52 -8 -8 -15 -17 -15 -20 0 -12
47 -6 66 9 29 22 37 18 32 -15 -5 -35 -5 -35 30 -13 l27 17 -22 -25 c-32 -35
-30 -59 2 -29 14 13 24 32 23 42 -5 29 17 21 26 -10 6 -22 4 -39 -8 -63 -18
-36 -16 -48 4 -24 7 8 19 15 28 15 12 0 10 -6 -9 -26 l-24 -27 34 18 c34 17
35 17 53 -5 21 -25 24 -64 6 -57 -7 2 -13 13 -13 25 0 12 -4 22 -8 23 -24 4
-49 -13 -58 -40 -6 -17 -17 -31 -24 -31 -21 0 -55 -50 -55 -82 l0 -28 28 17
27 17 -19 -22 c-25 -29 -15 -38 18 -17 27 18 46 13 46 -11 0 -8 5 -14 10 -14
13 0 13 6 0 29 -6 13 -5 24 5 37 20 27 18 40 -2 22 -10 -9 -37 -18 -60 -21
-39 -5 -41 -4 -34 17 4 11 22 30 39 41 17 11 31 27 32 36 0 16 19 39 32 39 4
0 8 -8 8 -19 0 -10 6 -24 14 -30 12 -10 18 -7 32 14 16 25 16 27 -7 53 -13 15
-30 31 -37 35 -7 5 -10 12 -7 18 3 5 16 -1 29 -14 12 -12 44 -40 70 -61 61
-50 90 -106 89 -172 0 -62 -13 -86 -59 -114 -47 -29 -104 -23 -145 16 -34 33
-38 24 -8 -18 32 -44 113 -68 155 -45 70 39 132 129 102 148 -7 5 -8 9 -3 9
29 0 -6 182 -39 210 -8 6 -12 20 -9 30 7 28 -23 70 -50 70 -28 1 -62 26 -62
47 0 9 -6 18 -13 21 -41 13 18 -63 67 -86 30 -14 37 -23 39 -52 2 -19 10 -43
19 -52 33 -37 59 -168 33 -168 -5 0 -10 10 -10 23 0 37 -54 112 -119 163 -49
40 -59 53 -55 71 4 14 2 23 -5 23 -6 0 -11 -7 -11 -15 0 -8 -9 -19 -19 -25
-28 -14 -33 -13 -26 10 3 11 -2 36 -12 57 -10 21 -16 46 -15 57 2 11 -1 16 -7
12 -6 -4 -11 -13 -11 -20 0 -13 -31 -46 -43 -46 -4 0 -7 8 -7 18 0 28 -9 32
-38 16 -14 -7 -27 -12 -29 -11 -2 3 12 61 27 111 6 19 6 34 0 41 -7 9 4 27 40
64 27 28 56 51 63 51 8 0 26 9 39 20 l26 20 4 -60 c7 -98 71 -143 118 -83 l21
26 33 -36 c19 -20 41 -37 50 -37 26 0 18 -15 -14 -27 -35 -13 -48 -38 -32 -64
17 -26 15 -31 -7 -19 -24 12 -78 13 -85 1 -9 -13 44 -24 58 -12 15 13 26 4 26
-21 0 -10 7 -18 15 -18 8 0 15 -5 15 -11 0 -5 5 -7 10 -4 15 9 12 38 -2 29
-10 -5 -10 -4 -1 6 13 14 1 48 -20 62 -16 10 12 38 37 37 20 0 20 -1 -3 -10
-13 -5 -22 -12 -19 -14 3 -3 17 -1 32 4 43 17 28 91 -19 91 -14 0 -26 7 -30
19 -8 25 -26 40 -64 51 -28 8 -29 7 -18 -11 19 -30 -12 -69 -41 -51 -9 6 -6
20 13 58 31 62 61 96 105 120 19 10 37 22 40 25 10 11 46 21 120 33 79 13 100
12 100 -6 0 -28 71 -51 85 -27 7 10 45 -21 45 -36 0 -3 -74 -5 -165 -5 -164 0
-166 0 -176 -23 -9 -20 -6 -33 16 -75 14 -27 28 -69 30 -93 6 -61 15 -61 15 0
0 39 -7 66 -27 102 -18 31 -24 52 -18 57 6 5 84 12 174 15 135 5 173 3 217
-11 l53 -16 3 -148 c2 -81 1 -148 -2 -148 -2 0 -20 16 -40 35 l-35 34 -32 -29
c-18 -17 -35 -30 -40 -30 -4 0 -24 16 -45 37 l-37 36 -45 -36 c-24 -21 -51
-37 -58 -37 -8 0 -29 16 -48 35 -19 19 -37 35 -41 35 -7 0 -28 -95 -36 -165
-3 -22 0 -70 7 -107 12 -62 15 -68 34 -62 12 4 33 15 47 25 26 18 26 18 93
-27 l67 -45 48 35 c27 20 54 36 61 36 6 0 31 -14 56 -30 l44 -31 0 -206 c0
-196 -1 -205 -17 -191 -10 9 -43 26 -73 39 -163 69 -237 138 -295 278 -37 90
-60 112 -34 34 36 -112 118 -224 203 -277 28 -18 90 -50 139 -71 48 -21 87
-44 87 -52 0 -17 19 -17 26 1 3 8 25 19 49 25 52 13 169 66 209 95 57 41 99
92 135 166 34 70 38 86 50 225 12 132 11 158 -2 215 -9 36 -18 79 -21 96 -3
18 -8 42 -11 55 -5 22 -2 24 29 26 27 2 36 -2 41 -17 3 -10 15 -22 26 -25 10
-4 19 -10 19 -14 0 -13 -26 -32 -33 -24 -4 3 -7 1 -7 -5 0 -6 15 -12 33 -14
19 -2 31 -8 29 -16 -2 -9 6 -8 29 3 31 16 46 15 35 -3 -10 -17 -73 -42 -105
-42 -24 0 -31 -4 -31 -20 0 -11 9 -25 20 -32 17 -11 17 -14 5 -28 -15 -16 -50
-138 -42 -146 2 -3 11 6 20 19 9 14 39 39 66 56 l51 31 0 -25 c0 -23 24 -45
50 -45 6 0 22 11 35 24 24 24 25 25 35 5 6 -11 9 -28 5 -38 -4 -12 2 -21 20
-29 14 -6 25 -18 25 -26 0 -13 -4 -13 -27 -1 -31 16 -43 12 -43 -16 0 -30 -26
-33 -62 -7 -42 29 -73 36 -64 13 3 -9 2 -13 -4 -10 -6 3 -10 2 -10 -2 0 -15
23 -33 42 -33 24 0 23 -5 -7 -44 l-25 -33 23 -11 c46 -23 91 -19 122 12 l25
25 6 -25 c19 -74 -94 -111 -182 -59 -57 33 -83 81 -88 162 -3 51 -16 51 -16 0
0 -65 25 -120 73 -162 82 -72 163 -86 212 -36 24 26 27 35 22 72 -6 44 -35 85
-44 61 -12 -31 -48 -53 -82 -50 -19 2 -36 9 -39 16 -2 7 2 10 11 7 7 -3 20 1
27 10 10 12 10 15 -5 15 -13 0 -15 3 -6 13 12 15 -3 37 -26 37 -15 0 -17 16
-3 25 5 3 25 -10 45 -30 45 -43 64 -44 71 -6 7 35 32 48 41 23 7 -18 28 -42
37 -42 34 0 -62 202 -99 209 -11 2 -17 0 -13 -4 13 -14 -12 -45 -36 -45 -35 0
-41 44 -10 65 13 9 24 21 24 27 0 6 -10 2 -22 -9 -13 -11 -34 -24 -48 -28 -14
-4 -42 -19 -63 -32 l-39 -24 7 23 c4 13 16 38 27 57 15 27 17 36 6 42 -7 5
-16 9 -20 9 -20 0 -5 20 15 20 12 0 36 9 53 19 37 23 90 88 80 99 -4 4 -13 0
-19 -9 -31 -42 -98 -30 -90 16 4 20 1 25 -14 25 -11 0 -29 11 -41 25 -12 14
-27 25 -33 25 -5 0 -7 5 -4 10 3 6 13 10 22 10 8 0 24 11 35 25 25 31 40 32
32 1 -6 -24 17 -56 40 -56 24 0 64 40 76 75 6 20 9 54 6 78 -6 40 3 33 18 -15
3 -11 15 -16 35 -16 20 1 41 -9 65 -30 43 -38 69 -46 97 -31 21 11 22 10 17
-28 -4 -24 0 -49 8 -64 20 -35 18 -52 -6 -46 -22 6 -25 0 -10 -23 9 -13 10
-13 10 0 0 9 6 5 13 -9 6 -14 18 -27 26 -29 21 -7 6 86 -19 120 -17 23 -17 28
-4 39 12 10 13 9 8 -7 -5 -14 -4 -16 5 -8 9 8 8 22 -6 57 -18 46 -19 47 -36
26 -21 -24 -49 -19 -87 16 -37 33 -64 45 -90 38 -16 -4 -21 -3 -16 5 9 15 -9
49 -46 89 -19 19 -27 36 -23 44 5 8 4 10 -3 5 -7 -4 -12 -2 -12 3 0 17 18 13
40 -9 21 -21 50 -27 50 -11 0 5 -12 12 -27 14 -28 4 -28 4 -2 6 19 1 33 -10
60 -45 31 -42 74 -72 86 -60 11 11 -10 46 -28 46 -24 0 -73 46 -66 63 3 9 -12
12 -53 13 -35 0 -66 7 -80 17 -21 14 -19 15 38 10 52 -5 62 -3 81 16 41 41 20
121 -31 121 -19 0 -20 1 -5 18 8 9 17 37 19 62 l3 45 15 -29 c23 -44 45 -54
69 -31 22 19 43 13 23 -7 -17 -17 -15 -31 8 -46 18 -11 25 -10 48 9 l27 21 3
-26 c3 -20 9 -26 28 -26 13 0 24 -4 24 -9 0 -5 3 -17 6 -26 5 -11 2 -16 -7
-14 -44 9 -89 -27 -58 -46 6 -4 8 -14 4 -23 -6 -17 31 -57 40 -43 3 5 1 12 -5
16 -5 3 -10 13 -10 22 0 9 -7 25 -16 35 -15 16 -15 18 -1 24 24 9 52 0 52 -16
0 -23 28 -60 46 -60 28 0 63 48 63 85 0 67 -73 123 -127 97 -20 -10 -18 -11
18 -11 52 -1 85 -24 85 -59 0 -35 -26 -72 -50 -72 -17 0 -19 7 -18 44 2 48
-14 76 -44 76 -16 0 -19 5 -14 25 8 32 -18 34 -50 4 -23 -21 -62 -20 -49 1 4
6 10 8 15 5 4 -3 11 2 14 11 8 22 8 22 -15 34 -16 9 -26 8 -46 -5 -27 -18 -33
-15 -51 27 -9 22 -8 30 3 42 9 8 11 17 7 20 -12 7 -48 -32 -60 -64 -5 -14 -6
-35 -1 -47 6 -15 4 -25 -5 -30 -13 -8 -36 -45 -36 -59 0 -5 5 -3 12 4 15 15
45 15 54 0 4 -6 3 -8 -4 -5 -13 9 -42 -2 -42 -16 0 -7 4 -7 12 1 16 16 28 15
28 -2 0 -22 -50 -37 -93 -27 -35 9 -54 19 -85 49 -8 7 -24 9 -38 6 -19 -5 -37
2 -70 26 -39 28 -49 31 -70 21 -13 -6 -24 -15 -24 -21 0 -13 6 -13 29 1 14 10
25 7 57 -15 21 -14 51 -26 67 -26 16 0 49 -14 74 -31 24 -17 61 -33 81 -36 38
-5 53 4 87 52 14 19 14 19 15 -11 0 -44 -32 -74 -80 -74 -21 0 -42 5 -45 10
-3 6 -18 10 -33 10 l-27 -1 26 -22 c63 -56 105 -183 83 -252 -10 -34 -12 -36
-13 -14 -1 25 -29 70 -61 97 -30 26 -137 72 -193 84 -53 11 -61 16 -78 50 -18
36 -32 43 -69 40 -39 -4 -78 9 -76 26 1 11 -8 18 -24 21 -23 3 -39 16 -40 33
0 3 16 12 36 18 48 16 102 72 110 115 5 31 9 34 30 29 42 -11 94 6 135 43 31
28 39 42 39 69 0 19 4 34 10 34 5 0 27 -17 49 -38 32 -30 39 -43 35 -63 -5
-24 -5 -24 16 4 12 15 26 25 30 22 17 -11 21 17 9 65 -9 35 -27 65 -61 102
-56 61 -64 93 -20 77 22 -7 40 -6 77 8 49 18 79 52 36 40 -11 -3 -21 -1 -21 3
0 5 -15 3 -34 -5 -25 -11 -65 -13 -155 -10 -126 4 -161 10 -161 26 0 10 -40
12 -64 3 -23 -9 -20 -24 4 -24 23 0 26 -13 6 -29 -21 -18 -67 -9 -80 14 -6 11
-12 22 -13 24 -2 2 -12 -4 -22 -13 -22 -20 -56 -18 -56 4 0 8 10 16 23 18 25
4 26 6 12 33 -7 12 -21 19 -41 19 -17 0 -28 4 -25 9 4 5 0 11 -6 14 -7 3 -1 4
14 3 15 -2 33 -8 42 -15 8 -7 17 -8 20 -3 11 19 72 22 115 7 27 -9 92 -16 170
-19 80 -2 141 -9 166 -19 52 -20 105 -29 105 -18 0 5 -21 12 -47 16 l-48 8 70
11 c65 11 126 40 147 71 14 19 8 26 -12 15 -20 -11 -30 3 -10 15 12 8 13 25 1
25 -5 0 -11 -9 -14 -19 -7 -28 -62 -59 -127 -71 -30 -6 -63 -15 -73 -21 -27
-15 -30 -6 -7 21 11 13 20 33 20 45 0 21 3 22 74 17 40 -2 81 0 91 5 12 7 0 9
-42 7 -46 -3 -51 -2 -23 5 19 4 52 15 72 25 59 28 144 132 92 112 -13 -5 -15
-1 -10 19 4 14 2 25 -4 25 -5 0 -10 -4 -10 -8 0 -13 -63 -40 -106 -46 l-39 -6
31 15 c42 19 134 109 134 131 0 16 -1 16 -20 -1 -24 -22 -26 -8 -4 23 14 20
14 22 0 22 -9 0 -16 -4 -16 -9 0 -11 -120 -71 -141 -71 -7 0 6 16 28 35 53 45
110 123 118 160 l6 30 -16 -27 c-9 -16 -17 -28 -20 -28 -4 0 1 31 11 63 5 17
-2 14 -32 -16 -36 -35 -152 -107 -216 -135 -15 -6 -75 -25 -134 -42 -152 -45
-166 -56 -168 -145 -1 -39 -3 -40 -46 -53 -25 -8 -56 -19 -69 -25 -21 -10 -26
-8 -54 23 l-31 35 32 5 c18 3 32 10 31 15 -3 22 -18 53 -28 60 -21 12 -11 24
61 72 140 94 123 88 155 59 33 -31 34 -31 59 -8 10 10 28 16 38 14 13 -3 15
-6 7 -12 -10 -5 -9 -9 3 -13 8 -3 36 8 63 26 46 30 48 34 51 82 2 36 0 46 -8
35 -7 -12 -10 -8 -10 18 0 25 -5 35 -24 42 -13 5 -26 14 -28 20 -5 15 -86 31
-94 19 -3 -5 -13 -9 -23 -9 -28 0 -65 -45 -58 -72 14 -52 -11 -82 -123 -152
-59 -36 -109 -66 -112 -66 -3 0 -8 9 -11 20 -6 24 -30 26 -47 5 -10 -12 -10
-19 -2 -27 7 -7 15 -8 19 -3 5 4 2 10 -5 12 -6 3 -9 9 -6 14 3 5 14 -2 25 -15
l20 -26 40 26 c54 34 61 25 8 -10 l-41 -28 23 -24 c12 -13 19 -27 15 -31 -4
-4 -11 -1 -16 7 -8 13 -10 12 -10 -2 0 -10 -5 -18 -11 -18 -7 0 -9 9 -5 24 4
16 1 26 -10 30 -8 3 -13 10 -9 15 3 5 1 12 -5 16 -5 3 -10 2 -10 -2 0 -5 -13
-14 -30 -20 -16 -6 -33 -20 -37 -30 -4 -10 -13 -24 -20 -31 -19 -20 -16 -32 8
-32 17 0 19 -3 10 -14 -9 -11 -9 -16 0 -22 7 -4 18 1 25 11 16 22 16 22 36
-31 8 -23 12 -48 8 -55 -5 -7 -2 -23 7 -36 15 -22 14 -25 -7 -48 -23 -25 -80
-35 -80 -16 0 6 -13 17 -28 26 -23 14 -28 23 -24 49 3 25 1 28 -8 16 -9 -12
-11 -9 -7 15 3 16 1 37 -3 46 -6 10 -3 26 6 45 10 19 14 43 11 69 -7 50 -45
84 -136 121 -167 67 -253 115 -314 172 -34 31 -72 66 -84 76 l-23 19 0 -39z
m240 -163 c52 -27 113 -54 135 -61 69 -21 136 -63 152 -94 l15 -29 -78 8
c-114 11 -170 8 -221 -15 l-45 -20 -51 25 c-110 53 -166 109 -192 195 -7 21
-2 19 41 -19 64 -57 122 -90 186 -107 63 -16 88 -18 88 -4 0 6 -5 10 -10 10
-14 0 -86 47 -144 94 -33 27 -58 60 -77 101 -47 98 -38 106 39 31 48 -48 93
-80 162 -115z m801 149 c-24 -21 -57 -28 -46 -10 3 6 15 10 25 10 10 0 22 5
25 10 3 6 9 10 13 10 4 -1 -4 -10 -17 -20z m114 -30 c29 -42 29 -82 1 -93 -10
-4 -13 -1 -9 9 7 20 -1 18 -42 -10 -20 -14 -52 -30 -72 -37 -31 -10 -38 -9
-55 8 -18 19 -18 21 -2 62 13 33 26 46 60 61 53 25 64 25 64 1 0 -18 45 -71
61 -71 16 0 10 12 -16 32 -16 13 -25 29 -25 49 0 16 2 29 4 29 2 0 16 -18 31
-40z m290 -80 c-23 -44 -93 -118 -128 -137 -24 -12 -27 -17 -16 -25 11 -7 9
-8 -6 -4 -11 3 -27 1 -35 -4 -11 -7 -2 -10 32 -10 47 0 142 30 186 58 33 22
27 7 -20 -44 -23 -25 -65 -57 -92 -71 -43 -22 -57 -24 -100 -17 -28 4 -98 8
-156 9 -165 3 -160 3 -160 24 0 31 47 56 180 96 121 35 243 93 298 140 34 29
38 25 17 -15z m-245 12 c0 -5 -7 -17 -15 -28 -14 -18 -14 -17 -4 9 12 27 19
34 19 19z m-260 -57 c-7 -8 -17 -15 -22 -15 -5 0 -30 -14 -54 -32 -24 -17 -46
-29 -49 -26 -5 5 114 86 129 87 5 1 3 -6 -4 -14z m215 5 c-9 -14 -45 -32 -45
-23 0 7 24 22 48 32 2 0 0 -3 -3 -9z m-1014 -227 c35 -4 41 -2 29 7 -12 9 -12
11 -1 8 15 -4 19 -10 42 -63 7 -16 15 -34 17 -38 2 -5 -4 -4 -14 2 -11 6 -52
20 -92 31 -83 24 -131 61 -154 118 l-15 39 72 -49 c50 -35 85 -51 116 -55z
m525 52 c-21 -16 -32 -13 -21 4 3 6 14 11 23 11 15 -1 15 -2 -2 -15z m44 -16
c0 -11 9 -39 20 -61 11 -23 19 -42 17 -42 -1 -1 -12 -6 -23 -13 -18 -10 -23
-9 -27 5 -3 9 -8 25 -12 35 -5 12 -2 17 9 17 9 0 16 4 16 10 0 5 -7 7 -15 4
-17 -7 -21 21 -5 31 6 4 8 16 4 27 -4 14 -2 18 5 14 6 -4 11 -16 11 -27z
m-363 -7 c-10 -10 -17 -23 -17 -29 0 -5 -9 -18 -20 -28 -26 -23 -28 -70 -2
-60 19 8 83 7 92 -1 3 -3 -11 -4 -30 -2 -33 3 -70 -15 -70 -34 0 -4 12 -15 26
-24 22 -15 27 -15 35 -3 14 22 11 33 -6 19 -15 -12 -35 -6 -35 11 0 6 4 7 10
4 5 -3 19 -1 30 5 13 7 20 7 20 0 0 -5 9 -10 20 -10 11 0 20 -5 20 -11 0 -6
-5 -9 -12 -7 -6 2 -20 -4 -30 -14 -20 -20 -53 -23 -91 -9 -18 7 -29 26 -46 78
-12 37 -25 73 -27 80 -3 7 18 19 58 32 83 26 96 27 75 3z m125 0 c37 -3 59 -9
62 -19 4 -9 2 -11 -6 -7 -8 5 -9 -13 -4 -70 4 -42 8 -82 10 -89 1 -7 1 -9 -1
-5 -2 4 -10 5 -16 3 -7 -2 -39 -6 -72 -9 l-60 -6 28 21 c34 26 37 54 5 43 -19
-6 -21 -5 -11 8 7 8 11 17 8 20 -3 2 5 4 18 4 31 -1 35 36 5 61 -13 10 -32 29
-43 43 -20 23 -20 23 0 15 11 -4 46 -10 77 -13z m203 -2 c-3 -5 -11 -10 -16
-10 -6 0 -7 5 -4 10 3 6 11 10 16 10 6 0 7 -4 4 -10z m-290 -21 c4 -12 2 -26
-4 -32 -19 -19 -12 -31 7 -14 24 22 39 21 52 -3 11 -20 -3 -30 -15 -10 -4 7
-13 6 -27 -1 -11 -6 -29 -8 -41 -5 -11 3 -29 1 -39 -5 -23 -13 -23 3 0 24 15
13 21 14 31 4 10 -10 11 -7 6 15 -11 44 17 69 30 27z m255 11 c0 -5 -7 -10
-16 -10 -8 0 -12 5 -9 10 3 6 10 10 16 10 5 0 9 -4 9 -10z m864 -17 c-9 -16
-25 -34 -33 -41 -26 -21 -113 -59 -151 -66 l-36 -6 0 52 -1 53 87 0 c65 1 94
5 111 17 35 25 44 21 23 -9z m-407 -13 c-7 -8 -27 -29 -45 -47 -29 -27 -32
-34 -22 -53 6 -12 9 -28 6 -35 -5 -14 23 -45 41 -45 6 0 13 -7 17 -15 4 -12
-3 -15 -30 -15 -47 0 -124 20 -124 32 0 6 -6 6 -14 -1 -10 -8 -16 -9 -21 -1
-3 5 1 10 9 10 9 0 19 0 24 1 21 1 34 54 27 118 l-7 67 75 -1 c65 0 74 -2 64
-15z m131 9 c35 -12 41 -30 37 -110 -3 -83 -25 -108 -93 -109 -55 0 -62 13
-16 30 30 12 35 55 5 45 -15 -5 -19 -1 -17 20 1 28 6 31 24 13 10 -10 15 -10
22 2 14 22 12 50 -5 56 -8 3 -21 19 -29 35 -14 29 -14 29 13 29 16 0 42 -5 59
-11z m-99 -61 l-14 -43 -6 40 c-7 43 6 74 24 56 7 -7 6 -24 -4 -53z m-1006
-14 c34 -12 46 -19 33 -22 -22 -5 -148 57 -154 76 -2 7 12 2 32 -12 20 -14 60
-33 89 -42z m830 -20 c-1 -42 -12 -56 -48 -60 -26 -3 -25 -4 -29 73 -1 9 5 18
11 20 8 3 15 -11 19 -36 4 -23 10 -41 15 -41 11 0 11 28 0 55 -5 12 -4 25 2
33 16 20 31 -2 30 -44z m-918 36 c17 -27 89 -52 139 -48 49 4 52 3 67 -29 l16
-33 -46 0 c-51 0 -113 25 -151 62 -37 34 -54 58 -42 58 6 0 14 -5 17 -10z
m1145 -25 c0 -10 -5 -11 -24 -2 -18 9 -22 15 -14 25 12 14 38 -1 38 -23z m-80
9 c0 -8 -4 -12 -10 -9 -5 3 -19 1 -30 -5 -22 -12 -27 -1 -8 18 17 17 48 15 48
-4z m-332 -1 c-2 -5 -13 -27 -24 -50 -22 -48 -29 -53 -37 -21 -5 16 1 31 20
50 24 26 50 38 41 21z m90 -38 c3 -38 -13 -69 -29 -59 -13 8 -11 78 3 92 17
17 24 8 26 -33z m-53 -22 c-1 -48 -1 -48 -38 -51 -20 -2 -37 -1 -37 2 0 13 56
96 65 96 6 0 10 -21 10 -47z m278 17 c6 -22 0 -25 -23 -10 -13 9 -13 11 0 20
8 5 16 10 16 10 1 0 4 -9 7 -20z m57 0 c0 -5 -5 -10 -11 -10 -6 0 -10 -10 -9
-22 3 -37 1 -48 -11 -48 -8 0 -9 11 -5 31 3 18 1 38 -5 45 -9 11 -6 14 15 14
14 0 26 -4 26 -10z m-49 -43 c-11 -11 -41 -3 -41 11 0 5 12 7 26 4 17 -3 22
-8 15 -15z m71 -9 c-11 -11 -32 -3 -32 12 0 4 9 6 21 3 13 -4 17 -9 11 -15z
m-612 -24 c54 -29 62 -41 50 -64 -13 -25 -5 -39 12 -22 17 17 28 15 28 -7 0
-22 -30 -32 -54 -19 -13 7 -21 5 -31 -9 -19 -25 -51 -5 -48 31 1 21 -3 26 -21
26 -13 0 -29 -6 -35 -14 -9 -10 -21 -11 -54 -3 -23 5 -82 10 -132 12 -67 1
-102 7 -137 23 -27 11 -48 23 -48 25 0 2 22 2 50 -1 27 -2 57 -1 67 4 10 4 27
8 38 10 10 1 21 6 22 11 5 15 264 13 293 -3z m652 -164 c-23 -23 -31 -26 -49
-17 -17 8 -33 6 -63 -8 -22 -10 -40 -20 -40 -23 0 -12 43 -72 51 -72 6 0 7 5
4 10 -3 6 -2 10 2 10 5 0 8 -18 8 -39 0 -49 9 -59 33 -38 45 41 58 -2 17 -52
-32 -37 -84 -55 -141 -48 -43 4 -44 4 -44 -26 0 -22 -11 -41 -42 -72 -37 -36
-52 -44 -111 -55 -87 -16 -167 -8 -240 25 -55 24 -70 39 -46 47 9 3 9 9 0 25
-16 31 -14 54 4 47 10 -4 14 -18 12 -45 -2 -22 2 -44 8 -49 8 -7 11 8 9 52 -1
46 -5 63 -17 67 -14 5 -13 9 7 28 15 15 27 19 37 12 11 -7 11 -9 -3 -9 -20 0
-25 -20 -5 -21 6 0 46 -4 87 -8 74 -8 250 6 233 18 -5 3 -14 18 -20 34 -13 27
-36 36 -48 17 -11 -18 -45 -11 -45 9 0 11 -6 21 -12 24 -7 2 -10 7 -7 11 8 8
80 -8 119 -27 14 -6 40 -25 59 -40 38 -32 90 -57 118 -56 10 0 0 8 -23 17 -70
29 -86 44 -89 84 -3 28 1 39 13 43 10 3 29 32 44 66 23 50 31 59 47 54 14 -4
21 0 26 14 5 17 15 19 70 19 l64 0 -27 -28z m-315 -33 c70 -29 102 -51 90 -63
-3 -4 -18 2 -34 13 -44 30 -74 40 -157 54 -85 14 -162 4 -243 -31 -24 -10 -45
-15 -48 -10 -18 29 198 83 285 72 19 -3 68 -18 107 -35z m-620 22 c6 -6 9 -28
6 -50 -4 -26 -2 -39 6 -39 7 0 10 4 7 9 -4 5 19 11 49 13 30 1 55 0 55 -4 0
-13 -42 -36 -56 -31 -18 7 -18 -5 1 -23 35 -35 3 -83 -34 -50 -31 28 -61 19
-109 -31 l-45 -46 5 60 c3 50 11 69 41 112 20 28 37 60 37 71 0 22 19 27 37 9z
m963 -6 c0 -5 15 -24 34 -43 56 -60 78 -116 58 -148 -6 -9 -20 -1 -52 29 -44
42 -70 47 -122 24 -15 -6 -18 -2 -18 28 0 30 -4 37 -30 46 -37 12 -38 28 -5
43 20 9 34 9 59 0 42 -16 43 -15 49 8 5 19 27 29 27 13z m-370 -42 c49 -15
104 -51 94 -61 -5 -5 -41 2 -82 16 -80 27 -178 32 -271 15 -32 -7 -59 -7 -69
-2 -12 7 -1 14 48 30 52 16 83 20 155 16 50 -2 106 -9 125 -14z m19 -63 c36
-13 67 -30 69 -37 5 -15 -1 -14 -77 14 -84 30 -233 30 -314 0 -12 -5 -17 -2
-17 9 0 8 10 18 23 21 12 3 40 9 62 15 61 14 182 4 254 -22z m-119 -27 c0 -13
-27 -33 -42 -29 -16 3 -68 -30 -68 -44 0 -5 10 -2 22 6 12 9 32 16 43 16 11 0
27 9 35 20 19 27 30 25 30 -4 0 -27 36 -40 65 -23 18 10 45 -7 31 -20 -4 -5
-61 -10 -127 -12 -104 -3 -119 -1 -119 13 0 9 -8 16 -20 16 -11 0 -20 5 -20
10 0 19 -15 10 -31 -18 -18 -32 -65 -57 -124 -67 l-40 -6 41 19 c22 11 57 39
77 63 23 27 52 49 75 56 44 14 172 17 172 4z m-240 -151 c0 -11 -4 -20 -10
-20 -5 0 -10 9 -10 20 0 11 5 20 10 20 6 0 10 -9 10 -20z m319 -173 c9 -14 8
-19 -6 -24 -31 -12 -203 -7 -203 6 0 3 6 12 14 20 22 24 180 23 195 -2z m-792
-13 c-3 -3 -12 -4 -19 -1 -8 3 -5 6 6 6 11 1 17 -2 13 -5z m613 -29 c23 -8 65
-15 92 -15 27 0 65 7 85 15 39 17 73 20 58 6 -18 -16 -110 -40 -155 -40 -48 0
-136 24 -145 40 -9 13 17 11 65 -6z m-128 -47 c13 -13 41 -46 62 -74 49 -65
87 -88 151 -88 62 0 84 14 150 97 56 68 85 88 118 79 19 -5 17 -7 -13 -13 -23
-5 -44 -19 -60 -41 -53 -72 -115 -126 -156 -137 -69 -19 -131 7 -198 81 -31
34 -56 65 -56 70 0 4 -15 17 -32 28 -27 17 -29 20 -12 20 11 0 32 -10 46 -22z
m-14 -45 c27 -29 32 -39 19 -41 -30 -6 -77 27 -77 53 0 35 17 31 58 -12z m532
1 c6 -14 10 -27 10 -28 0 -8 -61 -28 -67 -22 -3 3 0 6 8 6 9 0 24 7 35 14 16
13 13 13 -24 0 -25 -8 -49 -11 -58 -6 -12 7 -11 13 10 35 33 36 73 36 86 1z
m65 -43 c3 -6 13 -9 23 -9 42 2 155 -46 193 -82 33 -31 39 -43 39 -78 0 -39
-2 -42 -26 -42 -25 0 -26 2 -20 40 6 36 4 40 -15 40 -11 0 -34 -13 -49 -30
-15 -16 -33 -30 -38 -30 -6 0 -18 -10 -26 -22 -9 -12 -16 -18 -16 -13 0 15 36
66 42 60 2 -3 11 6 18 20 10 19 11 30 2 50 l-12 25 -176 0 -177 0 34 31 c19
17 28 28 22 24 -7 -3 -13 -1 -13 4 0 17 27 13 34 -4 9 -23 82 -20 103 5 18 21
48 26 58 11z m-572 -18 c-7 -2 -19 -2 -25 0 -7 3 -2 5 12 5 14 0 19 -2 13 -5z
m685 -78 c9 -9 -67 -146 -93 -167 -14 -11 -25 -29 -25 -40 0 -12 -7 -29 -15
-38 -8 -9 -17 -39 -19 -66 -2 -27 -11 -68 -19 -91 -23 -62 -9 -123 29 -123 18
0 18 -16 0 -23 -8 -3 -22 9 -35 33 -22 40 -37 43 -71 14 -8 -7 -26 -15 -40
-19 -22 -5 -29 0 -50 34 -27 43 -50 60 -50 36 0 -8 -7 -15 -16 -15 -11 0 -14
5 -10 16 3 9 6 19 6 24 0 12 25 7 44 -9 8 -7 20 -10 26 -6 15 10 12 36 -7 50
-15 11 -9 21 53 98 38 47 77 86 86 87 9 0 20 5 23 11 4 6 14 8 22 5 16 -6 51
23 70 57 13 25 4 78 -16 84 -9 2 -28 11 -43 19 -24 13 -31 13 -66 -2 -42 -19
-71 -69 -52 -88 26 -26 10 -69 -52 -140 -34 -39 -66 -75 -71 -81 -5 -6 -12 -4
-18 8 -13 22 -35 22 -43 0 -5 -11 -1 -22 11 -30 16 -12 16 -14 -4 -28 -26 -18
-38 -76 -14 -67 9 3 21 13 28 21 8 11 12 12 13 4 0 -17 -46 -46 -60 -38 -11 7
-10 345 1 345 3 0 14 -9 24 -20 15 -17 16 -24 7 -46 -7 -13 -12 -32 -12 -40 0
-12 4 -12 31 2 30 15 32 15 61 -13 l30 -28 -3 43 c-3 40 0 45 30 64 30 19 32
23 15 29 -10 4 -29 8 -41 8 -17 1 -23 9 -28 41 -8 49 -20 51 -35 5 -10 -32
-14 -34 -43 -28 -18 3 -33 6 -34 7 0 1 -3 19 -4 41 -4 37 -2 40 26 45 17 4 40
12 50 19 15 9 70 11 209 7 104 -3 191 -8 194 -11z m-136 -57 c31 -15 35 -23
14 -31 -13 -5 -66 34 -66 49 0 6 8 4 52 -18z m-82 -8 c0 -5 -5 -10 -11 -10 -5
0 -7 5 -4 10 3 6 8 10 11 10 2 0 4 -4 4 -10z m47 -19 c7 -11 22 -21 34 -23 12
-2 24 -9 25 -16 1 -7 0 -8 -2 -3 -3 6 -21 -5 -40 -24 -36 -36 -62 -43 -82 -23
-20 20 -14 51 16 80 33 33 34 33 49 9z m-169 -58 l23 -5 -21 -15 c-17 -12 -21
-22 -16 -46 l6 -31 -24 23 c-20 19 -28 21 -45 12 -24 -13 -26 -9 -10 21 9 16
6 25 -13 45 l-23 26 24 -13 c21 -11 26 -10 38 6 7 10 13 23 14 28 1 6 6 -2 12
-17 6 -15 21 -30 35 -34z m276 -75 c1 -24 10 -70 20 -103 21 -74 22 -208 1
-290 -16 -65 -74 -195 -87 -195 -11 0 -21 47 -14 65 3 8 -3 19 -14 25 -10 5
-22 19 -25 30 -9 27 19 70 45 70 22 0 27 16 8 23 -10 3 -10 9 -1 28 21 40 19
52 -7 59 -16 3 -26 14 -28 28 -6 37 27 120 56 141 21 16 23 20 10 21 -10 0
-18 -5 -18 -11 0 -5 -5 -7 -11 -4 -13 9 -2 64 18 87 8 9 12 21 9 26 -6 10 23
56 31 48 3 -3 6 -25 7 -48z m-196 -17 c-66 -71 -129 -151 -119 -151 6 0 11 -4
11 -9 0 -5 -11 -8 -24 -7 -13 0 -22 5 -19 9 3 5 -5 19 -18 33 -18 19 -19 24
-7 24 9 0 18 -7 22 -15 3 -8 9 -15 13 -15 5 0 42 40 83 89 41 49 78 87 83 84
5 -3 -6 -22 -25 -42z m-488 -75 c-12 -26 -28 -46 -35 -46 -15 0 -65 -60 -65
-78 0 -13 45 -9 64 7 11 9 15 7 18 -14 4 -17 1 -25 -8 -25 -8 0 -14 5 -14 10
0 16 -17 12 -24 -6 -8 -20 10 -54 29 -54 8 0 21 -13 30 -29 l15 -30 -51 34
-52 34 -38 -25 c-21 -13 -41 -24 -44 -24 -11 0 -4 207 8 248 l13 42 29 -30
c37 -38 51 -38 100 4 22 19 42 33 44 31 2 -2 -7 -24 -19 -49z m207 6 c30 -25
32 -31 34 -102 1 -41 1 -97 0 -123 l-1 -48 -37 26 c-48 32 -61 32 -111 -5 -23
-16 -49 -30 -57 -30 -14 0 -14 4 2 31 10 17 29 35 43 41 27 10 40 25 40 47 0
10 -9 12 -34 7 -31 -6 -34 -5 -29 14 7 28 18 33 33 15 12 -14 60 -22 60 -9 0
16 -55 74 -69 74 -14 0 -17 7 -13 29 4 26 6 28 23 18 16 -10 23 -7 46 16 15
15 30 27 33 27 3 0 19 -13 37 -28z m-152 -1 c3 -10 -1 -37 -10 -58 -17 -42
-17 -63 0 -75 6 -5 5 -11 -4 -17 -9 -6 -11 -18 -6 -40 8 -36 -12 -72 -26 -49
-5 7 -6 23 -2 36 5 22 4 23 -15 11 -17 -10 -23 -10 -36 0 -9 7 -13 17 -10 23
3 5 11 4 19 -2 10 -9 20 -8 37 1 20 11 20 14 6 17 -22 4 -24 22 -2 22 12 0 11
5 -7 19 -23 19 -24 19 -51 -1 -32 -22 -36 -14 -10 18 27 34 57 39 71 12 10
-21 11 -19 7 15 -8 59 24 114 39 68z m49 -98 c29 -31 26 -45 -4 -18 -11 10
-28 15 -40 12 -22 -6 -26 3 -8 21 17 17 24 15 52 -15z m206 -18 c-7 -9 -15
-13 -17 -11 -7 7 7 26 19 26 6 0 6 -6 -2 -15z m100 5 c0 -5 -4 -10 -10 -10 -5
0 -10 5 -10 10 0 6 5 10 10 10 6 0 10 -4 10 -10z m-78 -72 c-7 -7 -5 -24 8
-52 10 -22 23 -53 29 -68 5 -15 22 -35 37 -44 25 -17 28 -17 56 -1 16 9 38 17
48 17 10 0 21 4 24 9 3 5 15 11 26 14 l20 5 -20 -25 c-25 -32 -25 -44 0 -76
11 -14 20 -36 20 -49 0 -13 6 -33 14 -44 12 -17 12 -22 -2 -40 -36 -45 -187
-128 -267 -148 -16 -4 -37 -14 -45 -21 -13 -12 -15 17 -16 255 0 191 3 267 11
264 6 -3 19 2 30 10 21 15 43 10 27 -6z m64 -11 l21 -32 -23 -18 c-23 -17 -23
-17 -39 17 -14 29 -15 37 -3 50 18 21 20 20 44 -17z m-296 12 c0 -15 -34 -19
-47 -6 -12 12 -9 14 17 14 16 0 30 -4 30 -8z m470 -73 c0 -12 5 -16 14 -13 10
4 13 1 9 -9 -10 -26 -38 -14 -62 27 -19 34 -20 43 -10 50 17 10 48 -26 49 -55z
m-57 5 c24 -42 22 -61 -8 -61 -17 0 -25 5 -25 18 0 10 -5 23 -11 29 -14 14 -5
43 14 43 7 0 20 -13 30 -29z m-57 -27 c15 -39 15 -47 3 -55 -25 -16 -30 -10
-24 29 5 27 4 33 -4 22 -6 -8 -11 -23 -11 -32 0 -25 -16 -22 -35 5 -15 21 -14
23 17 49 18 15 34 28 35 28 1 0 9 -21 19 -46z"/>
<path d="M1800 2635 c7 -9 15 -13 17 -11 7 7 -7 26 -19 26 -6 0 -6 -6 2 -15z"/>
<path d="M1780 2621 c0 -6 5 -13 10 -16 6 -3 10 1 10 9 0 9 -4 16 -10 16 -5 0
-10 -4 -10 -9z"/>
<path d="M1804 2589 c-3 -6 -15 -7 -27 -3 -21 6 -21 5 -5 -12 13 -13 20 -15
31 -6 8 7 17 9 20 5 4 -3 7 -1 7 6 0 7 5 9 13 5 6 -4 8 -3 4 1 -11 13 -36 15
-43 4z"/>
<path d="M1742 2560 c7 -11 16 -20 21 -20 4 0 3 9 -3 20 -6 11 -15 20 -20 20
-6 0 -5 -9 2 -20z"/>
<path d="M1902 1768 c-7 -7 -12 -16 -12 -20 0 -15 15 -8 28 12 13 22 3 27 -16
8z"/>
<path d="M1680 1710 c0 -5 5 -10 11 -10 5 0 7 -4 4 -10 -3 -5 -15 -10 -26 -10
-10 0 -19 -4 -19 -10 0 -5 -6 -7 -13 -4 -8 3 -25 0 -39 -5 -20 -7 -25 -15 -21
-34 3 -14 0 -28 -6 -31 -7 -5 -11 4 -11 22 l0 30 -75 0 -75 1 0 -43 c0 -54 21
-86 44 -67 8 7 21 28 28 47 10 28 17 34 40 34 26 0 28 -2 22 -27 -4 -16 -9
-31 -11 -36 -8 -13 -23 4 -23 26 -1 20 -2 20 -11 5 -12 -22 5 -58 27 -58 8 0
20 11 26 25 6 14 15 25 20 25 5 0 4 -9 -2 -21 -17 -31 -6 -33 28 -4 19 16 34
40 38 61 3 19 9 33 12 30 2 -3 13 -1 24 5 28 15 32 6 13 -30 -18 -35 -30 -41
-22 -11 3 11 2 20 -3 20 -4 0 -11 -12 -15 -27 -3 -16 -14 -36 -22 -45 -25 -28
-5 -21 37 12 48 38 68 91 49 126 -13 24 -29 32 -29 14z m-62 -100 c-14 -41
-28 -47 -28 -12 0 31 7 42 26 42 10 0 11 -7 2 -30z m-159 11 c12 -8 12 -14 1
-41 -14 -34 -27 -30 -30 10 -4 43 1 48 29 31z"/>
<path d="M1335 1659 c-17 -27 23 -119 53 -119 4 0 6 26 5 57 -1 45 -5 59 -20
64 -26 11 -31 10 -38 -2z m42 -65 l2 -39 -14 30 c-18 38 -19 58 -2 53 6 -3 13
-22 14 -44z"/>
<path d="M1770 1101 c0 -5 6 -11 12 -13 10 -4 8 -9 -3 -21 -9 -9 -19 -13 -23
-10 -3 4 -6 1 -6 -5 0 -16 11 -15 35 2 11 7 24 14 30 14 5 0 11 5 13 11 2 6
-3 8 -12 5 -11 -4 -16 -1 -16 10 0 9 -7 16 -15 16 -8 0 -15 -4 -15 -9z"/>
<path d="M1606 2448 c-49 -34 -84 -64 -78 -66 14 -4 169 97 177 116 8 21 -7
13 -99 -50z"/>
<path d="M2115 1700 c-4 -7 -16 -10 -26 -7 -11 3 -19 1 -19 -4 0 -5 9 -9 20
-9 13 0 18 -5 14 -15 -4 -8 -3 -15 0 -15 8 0 28 51 22 57 -2 2 -7 -1 -11 -7z"/>
<path d="M2125 1658 c-11 -7 -26 -13 -34 -14 -7 -2 -19 -8 -25 -14 -8 -9 -6
-11 9 -6 26 8 55 -31 33 -45 -29 -20 -59 -21 -78 -4 -18 17 -19 16 -17 -11 2
-25 7 -30 37 -34 29 -5 53 1 80 18 2 2 -2 7 -10 12 -12 8 -10 10 8 10 l23 0
-21 30 c-12 17 -17 30 -11 30 6 0 15 9 21 20 12 23 12 23 -15 8z m-68 -114
c-3 -3 -12 -4 -19 -1 -8 3 -5 6 6 6 11 1 17 -2 13 -5z"/>
<path d="M1026 1533 c-39 -41 -48 -46 -90 -47 -27 -1 -46 -6 -46 -12 0 -7 -17
-19 -37 -28 l-38 -17 34 6 c19 3 42 12 51 20 9 8 31 15 49 15 24 0 44 11 80
45 27 25 58 45 70 45 12 0 19 4 16 10 -13 22 -48 8 -89 -37z"/>
<path d="M770 1430 c8 -5 22 -9 30 -9 10 0 8 3 -5 9 -27 12 -43 12 -25 0z"/>
<path d="M2360 1380 c0 -5 9 -14 20 -20 24 -13 28 -60 5 -60 -8 0 -24 9 -35
20 -23 23 -40 26 -40 6 0 -8 16 -20 35 -26 19 -6 33 -16 30 -21 -4 -5 5 -14
20 -21 34 -16 56 3 37 32 -6 11 -12 26 -12 34 0 15 -42 66 -54 66 -3 0 -6 -4
-6 -10z m57 -96 c-3 -3 -12 -4 -19 -1 -8 3 -5 6 6 6 11 1 17 -2 13 -5z"/>
<path d="M778 1343 c-29 -3 -38 -10 -48 -34 -17 -39 -49 -62 -67 -47 -15 12
-17 0 -3 -22 8 -12 16 -9 47 20 l38 35 -34 -37 c-19 -21 -32 -40 -29 -44 12
-11 56 27 67 57 6 17 21 33 36 39 31 12 64 41 43 38 -7 -1 -29 -3 -50 -5z m2
-20 c-14 -3 -28 -10 -32 -17 -5 -7 -8 -7 -8 0 0 17 12 24 39 23 l26 -2 -25 -4z"/>
<path d="M2370 1330 c0 -5 5 -10 10 -10 6 0 10 5 10 10 0 6 -4 10 -10 10 -5 0
-10 -4 -10 -10z"/>
<path d="M1540 1303 c-14 -14 -19 -24 -11 -22 13 5 49 49 40 49 -2 0 -15 -12
-29 -27z"/>
<path d="M2260 993 c0 -9 -9 -36 -21 -60 -12 -24 -19 -55 -16 -68 6 -32 -18
-34 -27 -2 l-7 22 -10 -23 c-5 -13 -6 -28 -3 -34 3 -5 -4 -20 -17 -34 -16 -17
-18 -24 -8 -24 14 0 45 39 41 53 -4 13 7 8 28 -13 38 -38 68 -17 35 26 -19 25
-18 29 2 50 11 11 17 31 17 56 -1 21 0 38 2 38 13 0 34 -38 34 -63 l1 -32 19
24 c22 26 27 21 8 -9 -7 -10 -9 -22 -5 -26 12 -12 28 11 34 47 3 19 9 37 15
40 10 6 -28 49 -43 49 -4 0 -5 -16 -2 -35 7 -44 -5 -44 -36 0 -26 38 -41 45
-41 18z m110 -22 c0 -6 -4 -13 -10 -16 -5 -3 -10 1 -10 9 0 9 5 16 10 16 6 0
10 -4 10 -9z m-109 -44 c-10 -9 -11 -8 -5 6 3 10 9 15 12 12 3 -3 0 -11 -7
-18z m-24 -39 c-3 -8 -6 -5 -6 6 -1 11 2 17 5 13 3 -3 4 -12 1 -19z"/>
<path d="M603 887 c-22 -10 -31 -27 -15 -27 12 0 48 28 42 33 -3 2 -15 0 -27
-6z"/>
<path d="M854 619 c-16 -17 -38 -34 -48 -38 -12 -5 -20 -18 -20 -34 -1 -17 2
-23 9 -17 7 6 15 2 23 -10 19 -31 -23 -38 -60 -10 -29 21 -44 24 -30 5 11 -16
50 -35 70 -35 10 0 26 6 36 13 16 12 16 14 2 26 -24 20 -19 38 12 49 43 15 76
47 69 65 -10 25 -30 21 -63 -14z m46 -5 c-8 -8 -23 -20 -34 -25 -15 -7 -13 -3
7 15 31 29 47 35 27 10z"/>
</g>
</svg>
